<?xml version="1.0" standalone="no"?>
<!DOCTYPE svg PUBLIC "-//W3C//DTD SVG 20010904//EN"
 "http://www.w3.org/TR/2001/REC-SVG-20010904/DTD/svg10.dtd">
<svg version="1.0" xmlns="http://www.w3.org/2000/svg"
 width="581.000000pt" height="581.000000pt" viewBox="0 0 581.000000 581.000000"
 preserveAspectRatio="xMidYMid meet">
<metadata>
Created by potrace 1.11, written by Peter Selinger 2001-2013
</metadata>
<g transform="translate(0.000000,581.000000) scale(0.100000,-0.100000)"
fill="#000000" stroke="none">
<path d="M2832 5752 c-44 -83 -95 -219 -127 -345 l-28 -108 -18 28 c-32 48
-165 168 -251 226 -81 54 -194 117 -211 117 -14 0 -5 -165 14 -269 20 -111 47
-196 95 -300 19 -41 33 -76 31 -78 -2 -2 -24 7 -48 20 -96 50 -475 184 -573
202 l-36 7 45 -98 c52 -113 150 -263 224 -346 46 -51 64 -77 43 -64 -4 2 -28
7 -52 11 -25 4 -52 8 -60 10 -8 2 -40 6 -70 10 -30 3 -71 8 -90 11 -83 11
-283 4 -298 -11 -3 -3 20 -43 52 -89 55 -82 181 -219 261 -286 22 -18 31 -29
20 -25 -11 4 -72 26 -136 50 -130 49 -478 145 -524 145 -3 0 12 -33 34 -74 65
-123 83 -237 45 -294 -16 -25 -25 -25 -207 -7 -23 3 -83 7 -134 10 -91 4 -92
4 -87 -18 9 -39 5 -146 -7 -195 -30 -122 -116 -225 -234 -282 -38 -19 -71 -34
-72 -35 -1 -1 0 -17 3 -36 l6 -35 212 0 c285 0 357 -4 363 -20 3 -8 6 -445 8
-971 1 -527 5 -974 9 -993 4 -19 14 -73 22 -120 39 -217 136 -452 269 -655 92
-139 114 -165 249 -300 159 -158 277 -243 481 -347 178 -91 378 -153 580 -182
98 -14 459 -16 515 -3 14 4 57 11 95 17 331 52 698 240 963 494 290 278 500
684 548 1061 3 22 8 51 11 65 3 14 7 454 8 978 1 524 5 955 7 958 12 11 150
19 361 19 147 0 227 3 228 10 0 5 3 22 5 36 4 22 -1 29 -28 40 -105 41 -197
124 -240 216 -38 80 -42 101 -43 211 l0 92 -85 -5 c-89 -6 -161 -12 -247 -21
-65 -7 -87 0 -101 32 -29 63 -2 190 63 298 18 31 32 56 30 56 -12 0 -240 -52
-285 -65 -174 -51 -394 -131 -491 -180 -27 -14 -49 -24 -49 -21 0 2 33 29 74
59 128 97 261 239 340 365 28 45 27 61 -2 61 -9 0 -66 0 -127 0 -60 1 -123 -1
-140 -3 -16 -2 -57 -7 -90 -10 -33 -4 -82 -11 -110 -16 -27 -6 -60 -12 -72
-15 -18 -3 -9 12 42 70 82 95 154 205 211 322 53 111 55 125 17 112 -16 -5
-116 -38 -223 -73 -107 -35 -238 -83 -290 -106 -52 -23 -101 -44 -107 -47 -7
-3 -1 15 13 40 67 121 121 325 131 500 5 88 3 107 -8 107 -24 0 -225 -124
-300 -186 -39 -31 -92 -82 -119 -112 l-49 -54 -11 43 c-26 107 -94 300 -128
369 -30 61 -42 76 -63 78 -22 3 -30 -5 -57 -56z m838 -1576 c0 -2 -35 -28 -77
-57 -217 -146 -417 -347 -557 -559 l-56 -84 -1 74 c0 41 -2 102 -4 135 -5 76
8 125 50 186 18 27 36 62 40 77 6 27 11 30 138 61 144 36 350 107 419 145 51
28 48 27 48 22z m-1336 -102 c39 -14 132 -41 206 -60 74 -19 135 -36 136 -37
1 -1 12 -22 24 -47 12 -25 37 -63 54 -85 44 -54 45 -56 56 -115 12 -61 24
-240 17 -240 -3 0 -20 24 -37 53 -95 154 -299 374 -459 495 -45 34 -79 62 -75
62 3 0 39 -12 78 -26z m-551 -620 c34 -9 69 -17 77 -19 126 -27 783 -255 808
-280 2 -2 -136 -3 -307 -2 -171 0 -314 -3 -318 -6 -3 -4 -7 -151 -7 -327 l-1
-320 30 -1 c17 0 67 -1 113 0 45 0 82 -2 82 -5 0 -2 -11 -22 -25 -44 -14 -22
-25 -42 -25 -44 0 -3 -13 -24 -28 -48 -16 -24 -38 -58 -48 -77 -10 -19 -33
-57 -51 -84 -18 -28 -30 -54 -28 -58 3 -4 33 -20 68 -36 217 -102 435 -390
542 -718 35 -106 80 -296 89 -380 9 -76 15 -125 21 -183 l5 -53 -56 6 c-74 7
-201 39 -289 72 -323 121 -583 374 -688 669 -61 170 -60 150 -62 1089 -1 473
0 864 3 868 2 5 10 6 18 3 8 -3 43 -13 77 -22z m2329 -828 c0 -594 -4 -867
-12 -922 -50 -326 -271 -622 -590 -792 -64 -34 -191 -85 -240 -97 -103 -26
-145 -35 -199 -41 l-64 -7 7 99 c8 107 13 150 22 204 3 19 7 44 8 55 14 88 51
244 71 298 8 20 12 37 9 37 -4 0 -2 6 3 13 5 6 18 35 28 62 31 86 106 225 165
304 58 79 194 211 217 211 7 0 13 4 13 9 0 10 92 51 115 51 8 0 18 6 21 13 2
7 -36 87 -85 176 -50 90 -93 171 -96 181 -5 17 2 19 92 19 54 0 107 0 118 0
20 1 20 7 20 320 0 176 -3 323 -7 327 -4 4 -136 7 -293 7 -158 0 -283 3 -278
7 4 3 71 30 148 59 77 29 151 57 165 63 59 24 297 99 435 138 83 23 161 45
175 49 14 5 27 7 28 5 2 -1 4 -383 4 -848z"/>
</g>
</svg>
